# xmcd CD database file
#
# Track frame offsets:
#	150
#	19140
#	40772
#	59432
#	80037
#	98045
#	118740
#	139150
#	160552
#	180345
#	202360
#	222160
#	243087
#	266462
#	286612
#	308994
#
# Disc length: 4346 seconds
#
# Revision: 0
# Processed by: cddbd v1.5PL3 Copyright (c) Steve Scherf et al.
# Submitted via: CDex 1.51
#
DISCID=dc10f810
DTITLE=LOS TITANES - ETERNAMENTE
DYEAR=1996
DGENRE=Salsa
TTITLE0=SOBREDOSIS
TTITLE1=POR RETENERTE
TTITLE2=APRIETALA
TTITLE3=NO ME VUELVO A ENAMORRAR
TTITLE4=EN TRANCE
TTITLE5=PENSANDOTE
TTITLE6=EMBRIAGAME
TTITLE7=TU LA PAGARAS
TTITLE8=COMPARAME
TTITLE9=ERES MI RAZON DE SER
TTITLE10=MI AMANTE NINA,MI COMPANERA
TTITLE11=PECADORA
TTITLE12=TU JUEGO
TTITLE13=DIRE QUE TE AMO
TTITLE14=NOCHE A NOCHE
TTITLE15=PIENSALO
EXTD=YEAR: 1996
EXTT0=
EXTT1=
EXTT2=
EXTT3=
EXTT4=
EXTT5=
EXTT6=
EXTT7=
EXTT8=
EXTT9=
EXTT10=
EXTT11=
EXTT12=
EXTT13=
EXTT14=
EXTT15=
PLAYORDER=
